<?xml version="1.0" encoding="UTF-8"?>
<svg id="Layer_1" xmlns="http://www.w3.org/2000/svg" version="1.1" viewBox="0 0 254.5 180.6">
  <!-- Generator: Adobe Illustrator 29.6.1, SVG Export Plug-In . SVG Version: 2.1.1 Build 9)  -->
  <defs>
    <style>
      .st0 {
        fill: #fc0;
      }

      .st1 {
        fill: #166600;
      }
    </style>
  </defs>
  <g>
    <path class="st1" d="M19.2,167.2c-10,0-18.2-7.5-18.2-18.1s8.2-18.1,18.2-18.1,18.1,7.4,18.1,18.1-8.1,18.1-18.1,18.1ZM19.2,159.3c5.6,0,9.3-4.1,9.3-10.3s-3.7-10.3-9.3-10.3-9.4,4-9.4,10.3,3.6,10.3,9.4,10.3Z"/>
    <path class="st1" d="M50.7,166.8h-8.6v-28.1h8.6v4.7c2-3,5-5,8.8-5v9.1h-2.4c-4.1,0-6.4,1.4-6.4,6.2v13Z"/>
    <path class="st1" d="M74.3,138.3c4.1,0,7.1,1.9,8.7,4.4v-4h8.6v28c0,7.5-4.3,13.9-14,13.9s-13.8-4.2-14.5-10.9h8.5c.6,2.1,2.7,3.5,5.6,3.5s5.8-1.7,5.8-6.4v-4c-1.6,2.5-4.5,4.4-8.7,4.4-6.9,0-12.4-5.6-12.4-14.5s5.5-14.4,12.4-14.4ZM76.8,145.8c-3.2,0-6.1,2.4-6.1,6.9s2.9,7,6.1,7,6.1-2.5,6.1-6.9-2.9-6.9-6.1-6.9Z"/>
    <path class="st1" d="M108.4,138.3c4.2,0,7.1,1.9,8.7,4.4v-4h8.6v28.1h-8.6v-4c-1.6,2.5-4.5,4.4-8.7,4.4-6.8,0-12.3-5.6-12.3-14.5s5.5-14.4,12.4-14.4ZM111,145.8c-3.2,0-6.1,2.4-6.1,6.9s2.9,7,6.1,7,6.1-2.5,6.1-6.9-2.9-6.9-6.1-6.9Z"/>
    <path class="st1" d="M151.3,151.6c0-3.8-2.1-5.9-5.4-5.9s-5.4,2.1-5.4,5.9v15.2h-8.6v-28.1h8.6v3.7c1.7-2.4,4.7-4,8.5-4,6.5,0,10.8,4.4,10.8,12v16.4h-8.6v-15.2Z"/>
    <path class="st1" d="M165.1,131.2c0-2.6,2.1-4.7,5.1-4.7s5.1,2.1,5.1,4.7-2.1,4.6-5.1,4.6-5.1-2.1-5.1-4.6ZM165.9,138.7h8.6v28.1h-8.6v-28.1Z"/>
    <path class="st1" d="M200.7,145.6l-11.9,14.1h12.2v7.1h-21.8v-6.8l11.7-14.1h-11.6v-7.1h21.4v6.8Z"/>
    <path class="st1" d="M218.2,167.2c-8.3,0-14.2-5.5-14.2-14.4s5.8-14.4,14.2-14.4,14,5.4,14,14,0,1.7-.2,2.5h-19.5c.3,3.7,2.6,5.4,5.3,5.4s3.8-1.2,4.5-2.7h9.2c-1.4,5.5-6.3,9.7-13.3,9.7ZM212.6,150h10.8c0-3.1-2.4-4.8-5.3-4.8s-5,1.7-5.5,4.8Z"/>
    <path class="st1" d="M245.3,166.8h-8.6v-28.1h8.6v4.7c2-3,5-5,8.8-5v9.1h-2.4c-4.1,0-6.4,1.4-6.4,6.2v13Z"/>
  </g>
  <path class="st0" d="M115.2,106.5c1.9,0,3.8-.1,5.6-.4h-11.2c1.8.2,3.7.4,5.6.4Z"/>
  <path class="st1" d="M158.5,63.2h0s-16,0-16,0c0,0,0,0,0,0,0,15.1-12.2,27.3-27.3,27.3s-27.3-12.2-27.3-27.3,0-.2,0-.3h-16c0,0,0,.2,0,.3,0,22,16.4,40.2,37.7,42.9h11.2c21.3-2.7,37.7-20.9,37.7-42.9Z"/>
  <path class="st0" d="M115.2,0c-34.9,0-63.2,28.3-63.2,63.2s6.4,31.6,16.8,42.9c11.6,12.5,28.1,20.3,46.4,20.3s34.9-7.8,46.4-20.3c10.4-11.3,16.8-26.4,16.8-42.9C178.5,28.3,150.2,0,115.2,0ZM115.2,106.5c-1.9,0-3.8-.1-5.6-.4-21.3-2.7-37.7-20.9-37.7-42.9s0-.3,0-.4h16c0,.2,0,.3,0,.4,0,15.1,12.2,27.3,27.3,27.3s27.3-12.2,27.3-27.3,0,0,0,0h16c0,22.1-16.4,40.3-37.7,43-1.8.2-3.7.4-5.6.4Z"/>
  <path class="st1" d="M0,26.5h52v15.6H19.5v16.8h24.4v15.1h-24.4v32.3H0V26.5Z"/>
  <path class="st1" d="M254.5,26.5v79.9h-19.5l-32.5-49.3v49.3h-19.5V26.5h19.5l32.5,49.5V26.5h19.5Z"/>
</svg>