<?xml version="1.0" encoding="utf-8"?>
<!-- Generator: Adobe Illustrator 16.0.4, SVG Export Plug-In . SVG Version: 6.00 Build 0)  -->
<!DOCTYPE svg PUBLIC "-//W3C//DTD SVG 1.1//EN" "http://www.w3.org/Graphics/SVG/1.1/DTD/svg11.dtd">
<svg version="1.1" id="Layer_1" xmlns="http://www.w3.org/2000/svg" xmlns:xlink="http://www.w3.org/1999/xlink" x="0px" y="0px"
	 width="595.279px" height="423.492px" viewBox="0 208.667 595.279 423.492" enable-background="new 0 208.667 595.279 423.492"
	 xml:space="preserve">
<circle fill="#FACC15" cx="269.454" cy="357.558" r="148.891"/>
<g>
	<path fill="#002235" d="M44.909,600.815c-23.391,0-42.57-17.542-42.57-42.336s19.18-42.336,42.57-42.336
		c23.39,0,42.336,17.309,42.336,42.336S68.299,600.815,44.909,600.815z M44.909,582.338c13.099,0,21.753-9.591,21.753-24.093
		s-8.654-24.092-21.753-24.092s-21.987,9.356-21.987,24.092C22.922,572.981,31.343,582.338,44.909,582.338z"/>
	<path fill="#002235" d="M118.588,599.88H98.473v-65.727h20.115v10.993c4.678-7.017,11.695-11.694,20.583-11.694v21.285h-5.613
		c-9.59,0-14.97,3.274-14.97,14.502v30.407V599.88z"/>
	<path fill="#002235" d="M173.789,533.218c9.59,0,16.606,4.444,20.35,10.292v-9.356h20.115v65.493
		c0,17.542-10.058,32.512-32.746,32.512s-32.278-9.823-33.916-25.495h19.882c1.403,4.912,6.315,8.187,13.099,8.187
		s13.566-3.977,13.566-14.97v-9.355c-3.743,5.847-10.526,10.291-20.35,10.291c-16.14,0-29.004-13.099-29.004-33.916
		C144.785,546.083,157.65,533.218,173.789,533.218z M179.637,550.761c-7.485,0-14.269,5.613-14.269,16.139
		c0,10.526,6.783,16.374,14.269,16.374c7.484,0,14.268-5.848,14.268-16.14s-6.783-16.14-14.268-16.14V550.761z"/>
	<path fill="#002235" d="M253.55,533.218c9.823,0,16.606,4.444,20.349,10.292v-9.356h20.116v65.727h-20.116v-9.355
		c-3.742,5.847-10.525,10.291-20.349,10.291c-15.905,0-28.771-13.099-28.771-33.916c0-20.816,12.865-33.682,29.004-33.682H253.55z
		 M259.631,550.761c-7.485,0-14.268,5.613-14.268,16.139c0,10.526,6.782,16.374,14.268,16.374c7.484,0,14.268-5.848,14.268-16.14
		s-6.783-16.14-14.268-16.14V550.761z"/>
	<path fill="#002235" d="M353.893,564.327c0-8.889-4.911-13.801-12.63-13.801s-12.631,4.912-12.631,13.801v35.553h-20.116v-65.727
		h20.116v8.654c3.977-5.613,10.993-9.355,19.882-9.355c15.203,0,25.261,10.291,25.261,28.068v38.359h-20.115v-35.553H353.893z"/>
	<path fill="#002235" d="M386.172,516.611c0-6.082,4.912-10.994,11.929-10.994s11.929,4.912,11.929,10.994
		c0,6.081-4.912,10.759-11.929,10.759S386.172,522.459,386.172,516.611z M388.043,534.153h20.115v65.727h-20.115V534.153z"/>
	<path fill="#002235" d="M469.441,550.293l-27.834,32.98h28.536v16.606h-50.991v-15.905l27.367-32.98h-27.133v-16.606h50.055
		V550.293L469.441,550.293z"/>
	<path fill="#002235" d="M510.373,600.815c-19.413,0-33.214-12.864-33.214-33.682s13.566-33.682,33.214-33.682
		c19.648,0,32.747,12.631,32.747,32.746s0,3.977-0.468,5.848h-45.611c0.702,8.654,6.081,12.631,12.396,12.631
		s8.889-2.808,10.525-6.315h21.52c-3.274,12.864-14.736,22.688-31.109,22.688V600.815z M497.276,560.585h25.261
		c0-7.251-5.613-11.228-12.396-11.228S498.445,553.334,497.276,560.585z"/>
	<path fill="#002235" d="M573.761,599.88h-20.115v-65.727h20.115v10.993c4.678-7.017,11.695-11.694,20.583-11.694v21.285h-5.613
		c-9.59,0-14.97,3.274-14.97,14.502v30.407V599.88z"/>
</g>
<path fill="#002235" d="M269.455,458.837c4.443,0,8.888-0.233,13.098-0.936h-26.196
	C260.567,458.369,265.011,458.837,269.455,458.837z"/>
<path fill="#002235" d="M205.6,356.856h-37.425c0,0,0,0.468,0,0.702c0,51.458,38.36,94.028,88.182,100.344h26.196
	c49.821-6.315,88.182-48.885,88.182-100.344l0,0l0,0H333.31l0,0c0,35.319-28.536,63.855-63.854,63.855
	c-35.319,0-63.855-28.536-63.855-63.855"/>
<path fill="#002235" d="M377.986,457.901"/>
<path fill="#002235" d="M0,271.716h121.629v36.488H45.611V347.5h57.072v35.319H45.611v75.55H0V271.716z"/>
<path fill="#002235" d="M595.28,271.716v186.888h-45.61L473.651,343.29v115.314h-45.61V271.716h45.61l76.019,115.781V271.716H595.28
	z"/>
</svg>
