<svg xmlns="http://www.w3.org/2000/svg" version="1.1" xmlns:xlink="http://www.w3.org/1999/xlink" width="297.781px" height="297.783px"><svg version="1.1" id="SvgjsSvg1006" xmlns="http://www.w3.org/2000/svg" xmlns:xlink="http://www.w3.org/1999/xlink" x="0px" y="0px" width="297.781px" height="297.783px" viewBox="120.564 208.667 297.781 297.783" enable-background="new 120.564 208.667 297.781 297.783" xml:space="preserve">
<circle fill="#FACC15" cx="269.454" cy="357.558" r="148.891"></circle>
<path fill="#002235" d="M269.455,458.837c4.443,0,8.888-0.233,13.098-0.936h-26.196
	C260.567,458.369,265.011,458.837,269.455,458.837z"></path>
<path fill="#002235" d="M205.6,356.856h-37.425c0,0,0,0.468,0,0.702c0,51.458,38.36,94.028,88.182,100.344h26.196
	c49.821-6.315,88.182-48.885,88.182-100.344l0,0l0,0H333.31l0,0c0,35.319-28.536,63.855-63.854,63.855
	c-35.319,0-63.855-28.536-63.855-63.855"></path>
<path fill="#002235" d="M377.986,457.901"></path>
</svg><style>@media (prefers-color-scheme: light) { :root { filter: none; } }
@media (prefers-color-scheme: dark) { :root { filter: none; } }
</style></svg>