<?xml version="1.0" encoding="utf-8"?>
<!-- Generator: Adobe Illustrator 16.0.4, SVG Export Plug-In . SVG Version: 6.00 Build 0)  -->
<!DOCTYPE svg PUBLIC "-//W3C//DTD SVG 1.1//EN" "http://www.w3.org/Graphics/SVG/1.1/DTD/svg11.dtd">
<svg version="1.1" id="Layer_1" xmlns="http://www.w3.org/2000/svg" xmlns:xlink="http://www.w3.org/1999/xlink" x="0px" y="0px"
	 width="297.781px" height="297.783px" viewBox="120.564 208.667 297.781 297.783"
	 enable-background="new 120.564 208.667 297.781 297.783" xml:space="preserve">
<circle fill="#FACC15" cx="269.454" cy="357.558" r="148.891"/>
<path fill="#002235" d="M269.455,458.837c4.443,0,8.888-0.233,13.098-0.936h-26.196
	C260.567,458.369,265.011,458.837,269.455,458.837z"/>
<path fill="#002235" d="M205.6,356.856h-37.425c0,0,0,0.468,0,0.702c0,51.458,38.36,94.028,88.182,100.344h26.196
	c49.821-6.315,88.182-48.885,88.182-100.344l0,0l0,0H333.31l0,0c0,35.319-28.536,63.855-63.854,63.855
	c-35.319,0-63.855-28.536-63.855-63.855"/>
<path fill="#002235" d="M377.986,457.901"/>
</svg>
