<?xml version="1.0" encoding="UTF-8"?>
<svg version="1.1" xmlns="http://www.w3.org/2000/svg" width="1024" height="585">
<path d="M0 0 C1.04445156 0.00085602 2.08890312 0.00171204 3.16500473 0.00259399 C15.96418764 0.01387352 28.76334468 0.03378175 41.5625 0.0625 C41.89896545 1.08884552 42.23543091 2.11519104 42.58209229 3.17263794 C43.03149801 4.53456456 43.48102854 5.89645001 43.93066406 7.25830078 C44.15146637 7.93294876 44.37226868 8.60759674 44.59976196 9.3026886 C46.04724416 13.67628353 47.70390483 17.85117038 49.64648438 22.02246094 C51.27788958 25.65572904 52.52715311 29.42096495 53.8125 33.1875 C54.10914551 34.04512939 54.40579102 34.90275879 54.71142578 35.78637695 C55.3427473 37.61207721 55.97243445 39.43834335 56.60058594 41.26513672 C58.20454735 45.9296519 59.81985263 50.59021579 61.4375 55.25 C61.76919189 56.20551758 62.10088379 57.16103516 62.44262695 58.14550781 C66.72685341 70.45281038 71.16853424 82.70381321 75.61132812 94.95458984 C80.89338579 109.52033994 86.04400537 124.12835855 91.14645386 138.75775146 C95.63222262 151.61399115 100.19379712 164.44095566 104.8125 177.25 C109.30789763 189.71815158 113.7178066 202.20882641 118.01000977 214.74853516 C121.2671665 224.25143633 124.62873818 233.71469479 128.0222168 243.16967773 C130.42692034 249.87158319 132.7953415 256.58419036 135.125 263.3125 C137.21804216 269.35198388 139.41369364 275.34225382 141.69287109 281.31396484 C146.89611019 294.95856871 151.55248354 308.75014245 156.10804272 322.62110043 C158.63400597 330.3029763 161.19545314 337.97302765 163.75415039 345.64404297 C164.22196157 347.04694634 164.68975801 348.44985463 165.15753937 349.85276794 C166.2923564 353.25606862 167.42737246 356.65930288 168.5625 360.0625 C141.02097742 360.27252943 113.47931235 360.45734086 85.9375 360.625 C84.89326968 360.63138284 83.84903936 360.63776568 82.7731657 360.64434195 C11.07465013 361.08090522 -60.61397768 361.04282457 -132.3125 360.625 C-133.96578733 360.61540308 -133.96578733 360.61540308 -135.6524744 360.60561228 C-163.58094346 360.44313148 -191.50927978 360.26323222 -219.4375 360.0625 C-218.08806759 352.51491725 -216.60214429 345.03509492 -214.8671875 337.56640625 C-214.61065399 336.45914688 -214.35412048 335.35188751 -214.08981323 334.21107483 C-210.6503062 319.51847612 -206.88719316 304.90626541 -203.14770508 290.2878418 C-201.40982008 283.49363224 -199.67581771 276.69843658 -197.9453125 269.90234375 C-197.66260372 268.79288958 -197.66260372 268.79288958 -197.37418365 267.66102219 C-194.20822885 255.22595544 -191.14916064 242.76680734 -188.16921997 230.28587341 C-186.33785546 222.64787418 -184.40013163 215.05002222 -182.35021973 207.46847534 C-180.85040874 201.87166497 -179.45771233 196.24862704 -178.0625 190.625 C-177.51307269 188.41795584 -176.96359113 186.21092518 -176.4140625 184.00390625 C-176.11048828 182.78340576 -175.80691406 181.56290527 -175.49414062 180.30541992 C-172.23376013 167.20618337 -168.95168541 154.112336 -165.67002869 141.01841736 C-156.30389752 103.68862688 -156.30389752 103.68862688 -147.125 66.3125 C-143.83135903 52.74195456 -140.50113276 39.18100507 -137.12393188 25.63098145 C-136.62846589 23.64233385 -136.13380385 21.65348575 -135.63998413 19.66442871 C-134.95900812 16.92281502 -134.27491576 14.18199889 -133.58984375 11.44140625 C-133.38619202 10.61965408 -133.18254028 9.79790192 -132.97271729 8.95124817 C-131.55210701 3.29171403 -131.55210701 3.29171403 -130.4375 1.0625 C-119.20851319 0.88288126 -107.9793488 0.71772487 -96.75 0.5625 C-95.46196032 0.54468412 -95.46196032 0.54468412 -94.14789963 0.52650833 C-62.76482498 0.09687822 -31.38581714 -0.02590925 0 0 Z M-51.4375 5.0625 C-51.4375 17.2725 -51.4375 29.4825 -51.4375 42.0625 C-45.8275 42.0625 -40.2175 42.0625 -34.4375 42.0625 C-34.4375 29.8525 -34.4375 17.6425 -34.4375 5.0625 C-40.0475 5.0625 -45.6575 5.0625 -51.4375 5.0625 Z M-51.4375 69.0625 C-51.46214455 75.31046254 -51.48033343 81.55839703 -51.49243164 87.80639648 C-51.49747298 89.93368014 -51.50430591 92.06096031 -51.51293945 94.18823242 C-51.52501379 97.23877826 -51.53073014 100.28927845 -51.53515625 103.33984375 C-51.54031754 104.29712875 -51.54547882 105.25441376 -51.55079651 106.2407074 C-51.55087204 107.12154495 -51.55094757 108.00238251 -51.55102539 108.90991211 C-51.553246 109.68934677 -51.55546661 110.46878143 -51.55775452 111.27183533 C-51.63321386 113.08616535 -51.63321386 113.08616535 -50.4375 114.0625 C-48.9487814 114.14919432 -47.456055 114.16953494 -45.96484375 114.16015625 C-44.61616211 114.15532227 -44.61616211 114.15532227 -43.24023438 114.15039062 C-42.29470703 114.14201172 -41.34917969 114.13363281 -40.375 114.125 C-39.42560547 114.12048828 -38.47621094 114.11597656 -37.49804688 114.11132812 C-35.14446935 114.0995011 -32.79101523 114.08302025 -30.4375 114.0625 C-30.08265337 98.98151813 -31.19104701 84.0867102 -32.4375 69.0625 C-38.7075 69.0625 -44.9775 69.0625 -51.4375 69.0625 Z M-51.4375 147.0625 C-51.4375 164.8825 -51.4375 182.7025 -51.4375 201.0625 C-49.7875 201.3925 -48.1375 201.7225 -46.4375 202.0625 C-54.3133918 204.62024044 -61.48548626 205.57713295 -69.75 205.5 C-70.8743042 205.49460205 -71.9986084 205.4892041 -73.15698242 205.48364258 C-84.1974912 205.28700416 -94.69660596 203.50007077 -105.4375 201.0625 C-106.85543298 200.75113914 -108.27339907 200.43992902 -109.69140625 200.12890625 C-112.61531767 199.46968566 -115.52917652 198.78683717 -118.4375 198.0625 C-118.4375 198.7225 -118.4375 199.3825 -118.4375 200.0625 C-117.92364746 200.2891333 -117.40979492 200.5157666 -116.88037109 200.74926758 C-114.52374606 201.78967271 -112.16811894 202.83231906 -109.8125 203.875 C-109.00425781 204.23142578 -108.19601563 204.58785156 -107.36328125 204.95507812 C-102.99799307 206.88929118 -98.68758 208.88244278 -94.4375 211.0625 C-99.57993665 218.92740311 -105.60029049 219.96568756 -114.4375 222.0625 C-117.07078159 222.78444631 -119.69143235 223.54757204 -122.3125 224.3125 C-124.35416667 224.89583333 -126.39583333 225.47916667 -128.4375 226.0625 C-128.45167969 226.88234375 -128.46585938 227.7021875 -128.48046875 228.546875 C-128.86584514 237.2542983 -128.86584514 237.2542983 -131.25 240.625 C-136.15574646 242.83739546 -141.19928868 243.89525862 -146.4375 245.0625 C-149.35814064 245.77598522 -152.27265117 246.51326215 -155.1875 247.25 C-156.57802367 247.5980613 -157.96864037 247.94575133 -159.359375 248.29296875 C-160.37515625 248.54691406 -161.3909375 248.80085938 -162.4375 249.0625 C-162.4375 249.3925 -162.4375 249.7225 -162.4375 250.0625 C-161.73367187 250.05613525 -161.02984375 250.04977051 -160.3046875 250.04321289 C-132.76745754 249.96906728 -132.76745754 249.96906728 -120.4375 258.0625 C-119.46775071 259.05315049 -118.5176147 260.06330603 -117.5859375 261.08984375 C-114.06854111 264.79318945 -110.09716165 265.9437543 -105.3125 267.4375 C-97.18970153 270.18797352 -90.00138124 273.36332168 -83.4375 279.0625 C-83.4375 281.0625 -83.4375 281.0625 -86.17578125 283.8125 C-87.36209881 284.9014034 -88.55377041 285.98449502 -89.75 287.0625 C-90.64235352 287.88234375 -90.64235352 287.88234375 -91.55273438 288.71875 C-94.11708953 291.05675425 -96.5387991 293.13003273 -99.4375 295.0625 C-99.1075 295.7225 -98.7775 296.3825 -98.4375 297.0625 C-97.55449219 296.55460938 -96.67148438 296.04671875 -95.76171875 295.5234375 C-94.54951402 294.82806424 -93.3372724 294.13275529 -92.125 293.4375 C-91.54943359 293.10621094 -90.97386719 292.77492188 -90.38085938 292.43359375 C-89.1519712 291.72947404 -87.9154982 291.03846457 -86.6726532 290.35928345 C-84.41456291 289.09945632 -84.41456291 289.09945632 -82.34907532 287.54989624 C-73.13856818 281.43923357 -63.54007441 282.18928728 -52.90625 282.265625 C-50.90482155 282.26157303 -48.903396 282.25574146 -46.90197754 282.24822998 C-42.71594002 282.23941586 -38.53067386 282.25212735 -34.34472656 282.28027344 C-29.03384884 282.3142799 -23.72480291 282.29487129 -18.41399384 282.25883865 C-14.28005758 282.23692062 -10.14653893 282.24416762 -6.0125885 282.25960541 C-4.05778273 282.26355234 -2.10293651 282.25889645 -0.1481781 282.24472809 C12.78744714 282.17158699 23.48335592 283.99513672 35.63407898 288.43032074 C38.23816961 289.28399951 40.8485637 289.71961561 43.5625 290.0625 C40.40809881 286.5507036 37.09848933 284.51040407 32.9375 282.3125 C31.79023438 281.69890625 30.64296875 281.0853125 29.4609375 280.453125 C26.79776286 278.91830898 26.79776286 278.91830898 24.5625 279.0625 C26.44776626 271.82695242 26.44776626 271.82695242 29.27490234 269.88818359 C31.41123293 269.0265182 33.52863562 268.35929943 35.75 267.75 C37.22288211 267.29630551 38.69553946 266.84188068 40.16796875 266.38671875 C40.89564453 266.17023682 41.62332031 265.95375488 42.37304688 265.73071289 C47.76020549 264.08657227 52.4580166 262.59900686 56.6875 258.75 C65.04841562 251.88938805 75.55205702 248.14845241 86.30078125 247.74609375 C87.36748047 247.70419922 88.43417969 247.66230469 89.53320312 247.61914062 C90.63599609 247.57982422 91.73878906 247.54050781 92.875 247.5 C93.99712891 247.45681641 95.11925781 247.41363281 96.27539062 247.36914062 C99.03764569 247.26335213 101.7999863 247.16126328 104.5625 247.0625 C104.5625 246.4025 104.5625 245.7425 104.5625 245.0625 C103.67054932 244.93721924 102.77859863 244.81193848 101.85961914 244.68286133 C98.50809543 244.20326435 95.15977598 243.70744304 91.81225586 243.20092773 C90.37113926 242.98618383 88.92907493 242.77769282 87.48608398 242.57592773 C79.02060358 241.38753274 71.74061922 240.01369898 64.5625 235.0625 C63.02335937 234.11503906 63.02335937 234.11503906 61.453125 233.1484375 C60.58171875 232.58382812 59.7103125 232.01921875 58.8125 231.4375 C55.42901979 229.25109905 52.02688465 227.11869952 48.5625 225.0625 C49.0234375 223.203125 49.0234375 223.203125 50.5625 221.0625 C53.3550639 219.94299354 56.24278724 219.3957061 59.1875 218.8125 C59.98929688 218.63976562 60.79109375 218.46703125 61.6171875 218.2890625 C63.59577675 217.86507909 65.57878056 217.46179256 67.5625 217.0625 C67.5625 216.7325 67.5625 216.4025 67.5625 216.0625 C66.89532959 216.01762451 66.22815918 215.97274902 65.54077148 215.92651367 C53.269941 215.08455205 41.02108397 214.13798275 28.8125 212.625 C27.39602173 212.46004028 27.39602173 212.46004028 25.95092773 212.29174805 C19.53342943 211.45448011 14.65226171 210.35320034 10.125 205.390625 C5.17394093 201.09068177 -2.29836289 202.59709168 -8.4375 202.8125 C-11.12488481 202.87876079 -13.81229463 202.93136306 -16.5 202.984375 C-17.68722656 203.02143555 -18.87445313 203.05849609 -20.09765625 203.09667969 C-23.32597944 203.06364129 -26.27477048 202.68469603 -29.4375 202.0625 C-28.1175 201.7325 -26.7975 201.4025 -25.4375 201.0625 C-25.4375 183.2425 -25.4375 165.4225 -25.4375 147.0625 C-34.0175 147.0625 -42.5975 147.0625 -51.4375 147.0625 Z M-52.4375 283.0625 C-52.4375 306.1625 -52.4375 329.2625 -52.4375 353.0625 C-40.8875 353.0625 -29.3375 353.0625 -17.4375 353.0625 C-17.4375 329.9625 -17.4375 306.8625 -17.4375 283.0625 C-28.9875 283.0625 -40.5375 283.0625 -52.4375 283.0625 Z " fill="#D76E30" transform="translate(275.4375,172.9375)"/>
<path d="M0 0 C75.24 0 150.48 0 228 0 C229.125 14.625 229.125 14.625 229.10743046 20.54983997 C229.10689593 21.20811032 229.1063614 21.86638067 229.10581067 22.54459861 C229.10283153 24.70562167 229.09260257 26.86654265 229.08229065 29.02754211 C229.07858829 30.6103098 229.07534121 32.19307861 229.07250541 33.77584809 C229.06347667 38.09049838 229.04805506 42.40510499 229.03152263 46.71973217 C229.01478803 51.38552236 229.00407728 56.05132699 228.99261475 60.71713257 C228.9719683 68.78947999 228.94755145 76.86180883 228.92053413 84.93413734 C228.8814777 96.60520184 228.84816907 108.27627725 228.81623887 119.94736316 C228.76427244 138.88541331 228.70769254 157.82344674 228.64819336 176.76147461 C228.59042394 195.15209299 228.53483848 213.54271586 228.48217773 231.93334961 C228.47892802 233.06797952 228.4756783 234.20260943 228.4723301 235.37162206 C228.45603977 241.06403486 228.43979224 246.75644778 228.42356598 252.44886076 C228.28901319 299.63259462 228.14667988 346.81630241 228 394 C214.14 394 200.28 394 186 394 C186 367.6 186 341.2 186 314 C170.82 314 155.64 314 140 314 C140 340.4 140 366.8 140 394 C130.1 394 120.2 394 110 394 C103.45946899 378.50980823 96.948955 363.01558785 90.75170898 347.3840332 C87.00004286 337.94138985 83.11258947 328.55670891 79.19702148 319.18115234 C76.42988704 312.53607595 73.77895915 305.86029682 71.21655273 299.13378906 C70.03837753 296.09885891 68.80595792 293.0942633 67.54296875 290.09375 C67.15302734 289.165625 66.76308594 288.2375 66.36132812 287.28125 C65.56462482 285.39355365 64.76234747 283.50820203 63.95507812 281.625 C63.57158203 280.7071875 63.18808594 279.789375 62.79296875 278.84375 C62.4477417 278.03099609 62.10251465 277.21824219 61.74682617 276.38085938 C60.93679186 273.79849435 60.86280502 271.69009757 61 269 C60.34 269 59.68 269 59 269 C53.63836594 256.31520139 48.41669611 243.59015705 43.4375 230.75 C39.77860594 221.31896352 35.91722946 212.03067082 31.64038086 202.86230469 C29 197.18320177 29 197.18320177 29 195 C34.28 195 39.56 195 45 195 C45 199.29 45 203.58 45 208 C46.98 207.67 48.96 207.34 51 207 C53.15404498 206.94306345 55.30990994 206.93933572 57.46435547 206.97827148 C58.72520966 206.99836777 59.98606384 207.01846405 61.28512573 207.03916931 C62.64581536 207.06635922 64.00650257 207.09367016 65.3671875 207.12109375 C66.77107942 207.14542269 68.17497985 207.16926482 69.57888794 207.19264221 C73.25815596 207.25520743 76.93727156 207.32435072 80.61639404 207.39489746 C84.37700512 207.4658313 88.1377235 207.53049789 91.8984375 207.59570312 C99.26574375 207.72435968 106.63290019 207.8599707 114 208 C114.11131413 211.38254593 114.17865876 214.76461678 114.23828125 218.1484375 C114.27022583 219.10290771 114.30217041 220.05737793 114.33508301 221.04077148 C114.41007448 226.71307762 114.19690351 230.24261775 110.1875 234.625 C101.73826172 240.79428509 84.60801292 250 74 250 C73.773125 250.78375 73.54625 251.5675 73.3125 252.375 C71.88241162 256.32476791 70.0707375 259.91865438 68.12109375 263.6328125 C67.10309933 265.78230595 66.53449922 267.69749514 66 270 C66.39324463 269.24323975 66.39324463 269.24323975 66.79443359 268.47119141 C67.98409997 266.18709511 69.17947397 263.90603433 70.375 261.625 C70.7875 260.8309375 71.2 260.036875 71.625 259.21875 C72.22441406 258.07792969 72.22441406 258.07792969 72.8359375 256.9140625 C73.20251465 256.2123291 73.5690918 255.5105957 73.94677734 254.78759766 C75.37751366 252.35925939 76.40327864 251.1645615 79.15478516 250.40576172 C80.45875244 250.17010498 80.45875244 250.17010498 81.7890625 249.9296875 C82.73007812 249.75566406 83.67109375 249.58164062 84.640625 249.40234375 C85.62546875 249.22832031 86.6103125 249.05429687 87.625 248.875 C89.11386719 248.60236328 89.11386719 248.60236328 90.6328125 248.32421875 C93.08735687 247.87579237 95.54299494 247.43470576 98 247 C99.9231041 249.99591759 101.83726627 252.99745286 103.75 256 C104.28882813 256.83917969 104.82765625 257.67835938 105.3828125 258.54296875 C108.58132183 263.57477001 111.43336106 268.61753388 114 274 C98.5664488 288 98.5664488 288 96 288 C96.99 294.6 97.98 301.2 99 308 C98.5875 305.23625 98.175 302.4725 97.75 299.625 C96.99333847 291.73460727 96.99333847 291.73460727 99.01757812 288.24658203 C102.14811964 284.76402548 106.02466562 282.41359587 110 280 C111.42463709 278.96926092 112.84327014 277.93004739 114.25 276.875 C115.1575 276.25625 116.065 275.6375 117 275 C116.32584613 269.7415998 114.75734451 264.97361654 113 260 C131.45004754 259.75030011 131.45004754 259.75030011 134.4921875 262.203125 C136.38428481 264.45795599 137.64038194 266.82802471 139 269.4375 C140.79171487 272.86695425 142.64622633 275.93396461 145 279 C142.86837899 271.81638729 140.34596075 264.41994069 135 259 C128.0087074 255.66443248 120.12592251 255.07954233 112.47680664 254.59570312 C110 254 110 254 108.23168945 252.13525391 C106.54398591 249.20945506 105.86924585 247.40832487 106 244 C108.9296875 241.6328125 108.9296875 241.6328125 110.84130859 240.42285156 C115.50158966 237.44877544 119.30524339 234.62926387 120.765625 229.10253906 C121.63108086 221.96901916 121.24178041 215.25341216 121 208 C136.18 208 151.36 208 167 208 C167 203.71 167 199.42 167 195 C177.56 195 188.12 195 199 195 C199 181.47 199 167.94 199 154 C188.44 154 177.88 154 167 154 C166.0415664 151.12469919 165.93343613 149.70950069 166.12109375 146.76953125 C166.16419678 146.04612549 166.2072998 145.32271973 166.25170898 144.57739258 C166.34367554 143.20877075 166.34367554 143.20877075 166.4375 141.8125 C166.623125 138.904375 166.80875 135.99625 167 133 C177.56 133 188.12 133 199 133 C199 119.14 199 105.28 199 91 C188.44 91 177.88 91 167 91 C167 89.68 167 88.36 167 87 C126.74 87 86.48 87 45 87 C45 88.32 45 89.64 45 91 C39.39 91 33.78 91 28 91 C28 104.53 28 118.06 28 132 C33.61 132 39.22 132 45 132 C45 139.26 45 146.52 45 154 C39.39 154 33.78 154 28 154 C28 166.54 28 179.08 28 192 C26.39414312 189.59121468 25.44320077 187.80346504 24.44921875 185.15625 C24.01899414 184.02703125 24.01899414 184.02703125 23.58007812 182.875 C23.13825195 181.699375 23.13825195 181.699375 22.6875 180.5 C19.22090345 171.27680007 15.39663001 162.39864221 10.49975586 153.83398438 C-3.28564199 128.05211518 -1.90826384 101.15735679 -1.51030123 72.57689762 C-1.41872364 65.76751919 -1.41596611 58.95884448 -1.41651428 52.14895725 C-1.41390106 41.54227423 -1.36817535 30.93604977 -1.24389648 20.33007812 C-1.23484787 19.31089294 -1.22579926 18.29170776 -1.21647644 17.24163818 C-1.20328369 16.2840863 -1.19009094 15.32653442 -1.17649841 14.33996582 C-1.16661109 13.52095039 -1.15672377 12.70193497 -1.14653683 11.85810089 C-0.94320112 7.89217666 -0.43853832 3.94684488 0 0 Z M28 29 C28 42.53 28 56.06 28 70 C41.86 70 55.72 70 70 70 C70 56.47 70 42.94 70 29 C56.14 29 42.28 29 28 29 Z M92 29 C92 42.53 92 56.06 92 70 C106.19 70 120.38 70 135 70 C135 56.47 135 42.94 135 29 C120.81 29 106.62 29 92 29 Z M156 29 C156 42.53 156 56.06 156 70 C161.9631823 70.02290595 167.92621311 70.04283396 173.8894043 70.05493164 C175.91968298 70.05997278 177.94995802 70.06680557 179.98022461 70.07543945 C182.89177347 70.08751467 185.8032745 70.09323034 188.71484375 70.09765625 C189.6283812 70.10281754 190.54191864 70.10797882 191.48313904 70.11329651 C193.65575427 70.11349168 195.82827296 70.06211805 198 70 C199.43924868 68.78928204 199.43924868 68.78928204 199.11352539 65.21459961 C199.11327425 63.52717272 199.10771112 61.8397407 199.09765625 60.15234375 C199.09664917 59.36702271 199.09564209 58.58170166 199.09460449 57.77258301 C199.08935638 54.82754057 199.07539523 51.88251888 199.0625 48.9375 C199.041875 42.358125 199.02125 35.77875 199 29 C184.81 29 170.62 29 156 29 Z M157 216 C157 229.53 157 243.06 157 257 C170.86 257 184.72 257 199 257 C199 243.47 199 229.94 199 216 C185.14 216 171.28 216 157 216 Z " fill="#D76E30" transform="translate(347,47)"/>
<path d="M0 0 C24.42 0 48.84 0 74 0 C71.03 7.92 68.06 15.84 65 24 C65.77711624 29.43981368 66.69085783 33.39846339 68.5625 38.4375 C69.01753906 39.67371094 69.47257813 40.90992188 69.94140625 42.18359375 C70.29074219 43.11300781 70.64007812 44.04242188 71 45 C72.98 43.68 74.96 42.36 77 41 C75.43016948 44.42947591 73.41360779 47.33591594 71.1875 50.375 C70.47980469 51.34695312 69.77210938 52.31890625 69.04296875 53.3203125 C67.43884214 55.42438679 65.81000962 57.33107863 64 59.25 C61.31379969 62.37679749 61.31379969 62.37679749 62 69 C71.57 69.33 81.14 69.66 91 70 C90.88027072 64.48226323 90.75769629 58.96474744 90.62768555 53.44726562 C90.58431211 51.56937458 90.54263882 49.69144348 90.50268555 47.81347656 C90.44504124 45.1177156 90.38133019 42.42215673 90.31640625 39.7265625 C90.29969376 38.88380768 90.28298126 38.04105286 90.26576233 37.17276001 C90.26763856 32.9513339 90.26763856 32.9513339 89 29 C81.74 29 74.48 29 67 29 C76.08108108 3.91891892 76.08108108 3.91891892 80 0 C82.76942593 -0.09517928 85.51373766 -0.12552958 88.28344727 -0.11352539 C89.16575233 -0.11364593 90.04805738 -0.11376646 90.95709896 -0.11389065 C93.82689328 -0.11314137 96.69662348 -0.10551245 99.56640625 -0.09765625 C101.33264128 -0.09618688 103.09887675 -0.09516614 104.8651123 -0.09460449 C111.43091482 -0.08935106 117.99670803 -0.07538998 124.5625 -0.0625 C139.226875 -0.041875 153.89125 -0.02125 169 0 C169 39.93 169 79.86 169 121 C161.08 124.96 161.08 124.96 153 129 C152.01 129.66 151.02 130.32 150 131 C150 117.8 150 104.6 150 91 C135.81 91 121.62 91 107 91 C107.495 110.8 107.495 110.8 108 131 C117.42263755 130.96068377 117.42263755 130.96068377 126.84521484 130.90991211 C133.9624562 130.89501444 140.93942403 131.0666571 148 132 C146.56770833 133.66015625 145.13541667 135.3203125 143.703125 136.98046875 C141.91436011 139.04024613 141.91436011 139.04024613 140.1953125 141.578125 C137.52949519 144.51906224 135.36725084 145.31072145 131.625 146.5625 C127.83467143 147.89332647 125.1204828 148.91084273 121.875 151.3125 C117.44570139 153.91230571 113.015787 153.32129596 108 153 C108.05800781 153.70382812 108.11601563 154.40765625 108.17578125 155.1328125 C108.52953569 162.87498112 107.03211866 168.78199041 104.19140625 175.96875 C100.07353012 186.44570698 101.13421644 198.56093654 105 209 C111.21768436 221.78385249 120.0987788 230.21698746 133.45703125 235.1875 C144.2073238 238.6223093 153.10737755 238.43440339 164 236 C165.66624016 235.66454116 167.3328555 235.3309352 169 235 C169.17466358 239.24989113 169.30080286 243.49781667 169.38452148 247.75024414 C169.41945919 249.19267208 169.46703081 250.63485697 169.52807617 252.07641602 C170.08396971 265.55333088 170.08396971 265.55333088 165.875 271.46875 C163.36898557 274.13931196 162.29897479 274.92057931 158.69140625 275.87890625 C157.65886719 275.77449219 156.62632812 275.67007812 155.5625 275.5625 C154.51191406 275.48128906 153.46132813 275.40007812 152.37890625 275.31640625 C151.59386719 275.21199219 150.80882812 275.10757812 150 275 C145.62780164 266.60486174 141.74894741 258.21073933 138.359375 249.375 C137.06089896 246.15119741 135.59855096 243.08426302 134 240 C130.70068153 240.27494321 129.33817326 240.6282152 127.07421875 243.1171875 C124.80640447 246.26906498 122.8859067 249.5181611 121.0625 252.9375 C120.74087891 253.51306641 120.41925781 254.08863281 120.08789062 254.68164062 C116.53632905 261.30141515 114.60986742 267.69237122 112 275 C75.04 275 38.08 275 0 275 C0 245.3 0 215.6 0 185 C12 191 12 191 15 193 C17.73872955 193.45772063 17.73872955 193.45772063 20.6875 193.625 C21.68136719 193.69976562 22.67523437 193.77453125 23.69921875 193.8515625 C24.83810547 193.92503906 24.83810547 193.92503906 26 194 C29.42878337 203.76108969 32.31747431 213.57032457 34.88671875 223.58984375 C35.07411621 224.32058105 35.26151367 225.05131836 35.45458984 225.80419922 C35.82652631 227.30160145 36.18029701 228.80360469 36.51806641 230.30908203 C36.95468212 232.2200729 37.47067994 234.11258386 38 236 C38.66 236.33 39.32 236.66 40 237 C39.67 236.67 39.34 236.34 39 236 C38.91348389 234.58429877 38.89295096 233.164405 38.90234375 231.74609375 C38.90556641 230.89208984 38.90878906 230.03808594 38.91210938 229.15820312 C38.92467773 227.81145508 38.92467773 227.81145508 38.9375 226.4375 C38.94201172 225.53580078 38.94652344 224.63410156 38.95117188 223.70507812 C38.96299775 221.46998686 38.9794778 219.23502563 39 217 C51.96739224 215.48038372 51.96739224 215.48038372 56.4609375 218.83984375 C58.49374041 221.46589322 60.23058149 224.19062728 62 227 C63.62626206 228.93330034 65.27223561 230.85019133 66.9375 232.75 C70.2187798 236.50968252 71.53955639 239.00089795 72 244 C72.34385192 239.1930905 71.65815666 236.76492649 68.9375 232.8125 C68.30714844 231.87148438 67.67679688 230.93046875 67.02734375 229.9609375 C66.35832031 228.98382813 65.68929687 228.00671875 65 227 C63.65644771 224.98594628 62.32262979 222.96535492 61 220.9375 C60.401875 220.03902344 59.80375 219.14054688 59.1875 218.21484375 C58.5996875 217.11849609 58.5996875 217.11849609 58 216 C59 214 59 214 61.15234375 213.19140625 C68.09462706 211.62379389 71.84525984 212.16515344 77.90625 215.93359375 C78.5971875 216.28550781 79.288125 216.63742187 80 217 C80.99 216.67 81.98 216.34 83 216 C82.13375 215.9175 81.2675 215.835 80.375 215.75 C77 215 77 215 74.29052734 212.97753906 C70.38428332 210.62996697 67.38906534 210.48156311 62.9765625 210.609375 C61.85729874 210.61786469 61.85729874 210.61786469 60.71542358 210.62652588 C58.35127363 210.64877102 55.98868541 210.69894016 53.625 210.75 C52.01434493 210.77008056 50.40366591 210.7883286 48.79296875 210.8046875 C44.86138493 210.84859619 40.93095648 210.91753682 37 211 C35.20355217 205.66516313 33.45615479 200.32188637 31.8125 194.9375 C31.46832031 193.81214844 31.12414062 192.68679688 30.76953125 191.52734375 C30.51558594 190.69332031 30.26164063 189.85929688 30 189 C28.78376953 189.0309375 28.78376953 189.0309375 27.54296875 189.0625 C17.9830787 188.88443453 13.20332862 185.98242547 6 180 C4.36998047 179.30583984 4.36998047 179.30583984 2.70703125 178.59765625 C-0.65137741 175.37494087 -0.4403392 174.24752767 -0.5859375 169.703125 C-0.54607039 167.21807498 -0.47453921 164.73337571 -0.375 162.25 C-0.34792969 160.98027344 -0.32085938 159.71054687 -0.29296875 158.40234375 C-0.2222359 155.26652094 -0.12356492 152.13411337 0 149 C14.87735356 147.06594404 14.87735356 147.06594404 19.98193359 150.22753906 C23.91380855 153.67723347 26.93215893 157.78892927 30 162 C30.97244378 163.02681698 31.95622063 164.04578586 33 165 C32.54109375 164.28714844 32.0821875 163.57429687 31.609375 162.83984375 C30.99578125 161.88207031 30.3821875 160.92429687 29.75 159.9375 C29.14671875 158.99777344 28.5434375 158.05804688 27.921875 157.08984375 C25.85746117 153.77083696 23.92073974 150.40378878 22 147 C23.47266677 144.83023073 24.97345115 142.69386572 26.5 140.5625 C27.11488281 139.64500977 27.11488281 139.64500977 27.7421875 138.70898438 C30.21260299 135.32152072 31.39496682 134.14928536 35.59375 133.11328125 C37.06143898 133.0458909 38.53080975 133.01150682 40 133 C40.91072266 132.95464111 41.82144531 132.90928223 42.75976562 132.86254883 C45.84112129 132.72241859 48.91584357 132.66698728 52 132.625 C53.0415625 132.58761719 54.083125 132.55023438 55.15625 132.51171875 C62.15744687 132.43215969 66.53080349 133.55024564 72 138 C69.97945196 136.35830472 67.97956942 134.69088222 66 133 C66 132.67 66 132.34 66 132 C74.25 132 82.5 132 91 132 C91 118.47 91 104.94 91 91 C81.43 91 71.86 91 62 91 C62.495 89.02 62.495 89.02 63 87 C62.61467393 84.75409424 62.61467393 84.75409424 61.8203125 82.4453125 C61.55089844 81.58292969 61.28148437 80.72054687 61.00390625 79.83203125 C60.71386719 78.93871094 60.42382812 78.04539062 60.125 77.125 C59.05188846 73.7586638 58.01130539 70.38537557 57 67 C56.6596875 65.91847656 56.319375 64.83695312 55.96875 63.72265625 C56 61 56 61 58.2734375 58.11328125 C59.29034397 57.16125553 60.32507516 56.22798324 61.375 55.3125 C65.50066713 51.75246922 65.50066713 51.75246922 68 47 C67.59111411 45.03861597 67.59111411 45.03861597 66.78515625 42.98828125 C66.51123047 42.23095703 66.23730469 41.47363281 65.95507812 40.69335938 C65.66052734 39.90767578 65.36597656 39.12199219 65.0625 38.3125 C64.77181641 37.51521484 64.48113281 36.71792969 64.18164062 35.89648438 C63.46260698 33.92798243 62.73236297 31.96358188 62 30 C57.71 29.67 53.42 29.34 49 29 C49 42.53 49 56.06 49 70 C51.64 70 54.28 70 57 70 C57.50838564 72.03959477 58.00633886 74.08179138 58.5 76.125 C58.7784375 77.26195312 59.056875 78.39890625 59.34375 79.5703125 C59.97121631 82.84957095 60.26987593 85.67474298 60 89 C58 91 58 91 54.9609375 91.1953125 C53.77757812 91.17210937 52.59421875 91.14890625 51.375 91.125 C50.18648437 91.10695313 48.99796875 91.08890625 47.7734375 91.0703125 C46.85820313 91.04710937 45.94296875 91.02390625 45 91 C45.08121094 92.12277344 45.16242187 93.24554688 45.24609375 94.40234375 C45.9270038 108.02206466 45.9270038 108.02206466 41.5 113.5625 C39.53125 115.62890625 39.53125 115.62890625 38 117 C33.27300254 112.92794797 30.9924953 106.7702129 29 101 C28.80617132 97.79259679 29.29783881 95.1086591 30 92 C30 90.68 30 89.36 30 88 C29.67 89.19625 29.34 90.3925 29 91.625 C28.814375 92.29789062 28.62875 92.97078125 28.4375 93.6640625 C27.42331661 99.07907738 28.2021699 103.21872339 30 108.375 C32.97888507 117.838606 32.97888507 117.838606 32 123 C30.50146154 124.98335972 28.88164941 126.54936692 27.01953125 128.1953125 C24.86142887 130.12382952 23.01054009 132.18105894 21.125 134.375 C17.61275901 138.45423954 16.77263348 139.15355568 11.25 139.625 C9.67992187 139.76808594 9.67992187 139.76808594 8.078125 139.9140625 C5 140 5 140 0 139 C0 116.23 0 93.46 0 70 C2.99578804 68.50210598 5.64407419 68.99917345 8.9765625 69.12109375 C10.23033691 69.16419678 11.48411133 69.2072998 12.77587891 69.25170898 C14.37608887 69.31302002 15.97629883 69.37433105 17.625 69.4375 C22.69875 69.623125 27.7725 69.80875 33 70 C33 56.47 33 42.94 33 29 C22.11 29 11.22 29 0 29 C0 19.43 0 9.86 0 0 Z M107 29 C107 42.53 107 56.06 107 70 C121.19 70 135.38 70 150 70 C150 56.47 150 42.94 150 29 C135.81 29 121.62 29 107 29 Z M74 140 C74.66 140.66 75.32 141.32 76 142 C76 141.34 76 140.68 76 140 C75.34 140 74.68 140 74 140 Z M49 153 C49 166.2 49 179.4 49 193 C55.579375 193.020625 62.15875 193.04125 68.9375 193.0625 C71.01667725 193.071604 73.09585449 193.08070801 75.23803711 193.09008789 C76.87613866 193.09300701 78.51424094 193.09555558 80.15234375 193.09765625 C81.01089966 193.10277222 81.86945557 193.10788818 82.75402832 193.11315918 C84.83636052 193.1134691 86.9186036 193.06242176 89 193 C90.42825986 191.8000901 90.42825986 191.8000901 90.11352539 188.30639648 C90.11327427 186.66128709 90.10771184 185.01617243 90.09765625 183.37109375 C90.09664917 182.60543091 90.09564209 181.83976807 90.09460449 181.05090332 C90.08935663 178.17975373 90.07539547 175.30862542 90.0625 172.4375 C90.041875 166.023125 90.02125 159.60875 90 153 C76.47 153 62.94 153 49 153 Z M43 240 C44.32 241.32 45.64 242.64 47 244 C46.34 242.68 45.68 241.36 45 240 C44.34 240 43.68 240 43 240 Z " fill="#D76E30" transform="translate(582,166)"/>
<path d="M0 0 C0.89835068 -0.00014603 1.79670135 -0.00029205 2.72227478 -0.0004425 C5.67107618 0.00025029 8.61981324 0.00801292 11.56860352 0.01586914 C13.62126125 0.01773557 15.67391942 0.01915841 17.72657776 0.02015686 C23.11385338 0.02396432 28.50110179 0.03377942 33.8883667 0.04486084 C39.39180127 0.0551131 44.89524026 0.05966264 50.39868164 0.06469727 C61.18580293 0.07540334 71.97290408 0.09245841 82.76000977 0.11352539 C83.13113892 1.13760498 83.13113892 1.13760498 83.50976562 2.18237305 C83.84886963 3.08004395 84.18797363 3.97771484 84.53735352 4.90258789 C84.86727295 5.79155762 85.19719238 6.68052734 85.53710938 7.59643555 C87.60678975 11.85644847 90.69134571 13.88412043 94.76000977 16.11352539 C95.47157227 16.52602539 96.18313477 16.93852539 96.91625977 17.36352539 C106.98296473 22.0700368 122.42160691 22.42105436 132.96313477 18.93774414 C142.87123956 14.56053346 146.25047363 10.25998171 150.76000977 0.11352539 C163.30000977 0.11352539 175.84000977 0.11352539 188.76000977 0.11352539 C188.76000977 20.57352539 188.76000977 41.03352539 188.76000977 62.11352539 C130.02000977 62.11352539 71.28000977 62.11352539 10.76000977 62.11352539 C9.44000977 56.83352539 8.12000977 51.55352539 6.76000977 46.11352539 C1.17634766 33.8604891 -7.89977738 24.73726363 -20.55249023 19.82836914 C-26.4148577 17.93531298 -32.09938538 16.59514146 -38.23999023 16.11352539 C-28.1658198 3.39577831 -15.75861442 -0.06784397 0 0 Z " fill="#D76E2F" transform="translate(770.239990234375,291.886474609375)"/>
<path d="M0 0 C5.80301078 4.52634841 10.23937526 9.64779472 13.125 16.4375 C13.99898437 16.09525391 13.99898437 16.09525391 14.890625 15.74609375 C22.4621013 13.09131511 29.54112266 12.64413793 37.265625 15.125 C42.19387103 17.52484155 45.05461405 21.51170676 47.125 26.4375 C48.85614754 33.97520492 48.85614754 33.97520492 47.125 37.4375 C47.62128906 36.96699219 48.11757813 36.49648438 48.62890625 36.01171875 C54.74949888 30.40214334 60.23740096 26.75419833 68.7890625 27.08984375 C74.34612779 27.91689862 79.27988181 30.09726566 83.0625 34.3125 C87.3055258 40.74132697 87.64527206 46.00778332 86.125 53.4375 C85.465 54.7575 84.805 56.0775 84.125 57.4375 C35.285 57.4375 -13.555 57.4375 -63.875 57.4375 C-67.15485581 50.87778839 -68.50655829 45.45200684 -66.18359375 38.3125 C-63.47578019 33.05548957 -59.36784635 30.26844878 -53.875 28.4375 C-52.27303298 28.34375322 -50.66720013 28.30757005 -49.0625 28.3125 C-47.81533203 28.30863281 -47.81533203 28.30863281 -46.54296875 28.3046875 C-43.59491843 28.45144257 -40.77588407 28.90390673 -37.875 29.4375 C-37.93300781 28.4475 -37.99101563 27.4575 -38.05078125 26.4375 C-38.37443386 18.57224372 -38.35263579 12.57123144 -32.875 6.4375 C-31.823125 5.07625 -31.823125 5.07625 -30.75 3.6875 C-22.14862923 -3.04400756 -10.01927035 -5.00963517 0 0 Z " fill="#D86D2F" transform="translate(709.875,505.5625)"/>
<path d="M0 0 C3.3 0 6.6 0 10 0 C11.82633681 4.181598 13.63356266 8.37119577 15.4375 12.5625 C15.95376953 13.74392578 16.47003906 14.92535156 17.00195312 16.14257812 C17.49501953 17.29306641 17.98808594 18.44355469 18.49609375 19.62890625 C18.95169678 20.68150635 19.4072998 21.73410645 19.87670898 22.81860352 C21.07798861 26.22088016 21.60368044 29.42129352 22 33 C22.66 33 23.32 33 24 33 C30.51875632 48.05358553 36.93906584 63.14463799 43.1875 78.3125 C43.48392395 79.03204865 43.7803479 79.75159729 44.08575439 80.49295044 C48.16942878 90.41975318 52.1777741 100.37259493 55.98510742 110.40942383 C57.7734989 115.07592905 59.72366205 119.61815737 61.84375 124.14453125 C65.33426463 131.61614006 68.42477778 139.2261832 71.5 146.875 C72.04789144 148.23058423 72.59606791 149.5860533 73.14453125 150.94140625 C74.76874865 154.95864213 76.38554152 158.97883369 78 163 C78.25259583 163.62875031 78.50519165 164.25750061 78.76544189 164.90530396 C82.39880881 173.95336287 85.98557775 183.01927147 89.55200195 192.09390259 C93.51476555 202.17464535 97.48134775 212.25387936 101.5 222.3125 C101.7892334 223.03783936 102.0784668 223.76317871 102.37646484 224.51049805 C103.99652704 228.55501855 105.65579144 232.58162022 107.3359375 236.6015625 C110.03492296 243.06334109 112.6739211 249.54899984 115.30462646 256.03878784 C116.72791706 259.54978662 118.15321328 263.05997142 119.578125 266.5703125 C119.86577728 267.27911057 120.15342957 267.98790863 120.44979858 268.71818542 C123.25358071 275.62650549 126.06282151 282.53259304 128.875 289.4375 C129.32721924 290.54851074 129.77943848 291.65952148 130.24536133 292.80419922 C132.16037688 297.50485281 134.07956287 302.20344132 136.02734375 306.890625 C139.07490121 314.22457121 141.99096156 321.57818468 144.72290039 329.03588867 C146.78999005 334.60687153 149.14269194 340.03115779 151.640625 345.42211914 C153.72661908 350.01842844 154.73416276 353.93665103 156 359 C149.4 359 142.8 359 136 359 C121.95002533 322.19774894 121.95002533 322.19774894 115.734375 304.03515625 C111.93087517 292.92730546 107.8881573 281.91287027 103.296875 271.10546875 C98.38996639 259.3554918 94.00511999 247.38622732 89.55224609 235.45922852 C86.28944979 226.73389745 82.94413298 218.04161187 79.58618164 209.35253906 C77.20339774 203.17293029 74.87958921 196.97735465 72.625 190.75 C69.45187054 182.00524538 65.96030539 173.39337175 62.47485352 164.7696228 C57.99559269 153.66868546 53.81482799 142.47639794 49.73242188 131.22436523 C47.07263496 123.89972875 44.33436199 116.63350798 41.390625 109.41796875 C39.72106975 105.31442706 38.10557008 101.19141872 36.5 97.0625 C36.20448242 96.30300049 35.90896484 95.54350098 35.60449219 94.76098633 C33.69449436 89.83489766 31.83631504 84.89143716 30 79.9375 C27.69220941 73.71350559 25.22187624 67.56903299 22.62304688 61.46069336 C20.33733418 56.02390371 18.37901811 50.48810769 16.41186523 44.92919922 C14.10413096 38.46008605 11.63511004 32.05088298 9.1784668 25.63720703 C8.3005508 23.34378452 7.42654194 21.0488968 6.55273438 18.75390625 C5.98981529 17.28116132 5.42667274 15.80850178 4.86328125 14.3359375 C4.60492996 13.65679291 4.34657867 12.97764832 4.08039856 12.27792358 C3.08999748 9.69936094 2.09467943 7.18237897 0.82104492 4.72900391 C0 3 0 3 0 0 Z " fill="#D96E31" transform="translate(329,174)"/>
<path d="M0 0 C1.23556641 0.01740234 1.23556641 0.01740234 2.49609375 0.03515625 C3.32238281 0.04417969 4.14867187 0.05320313 5 0.0625 C5.63808594 0.07410156 6.27617187 0.08570313 6.93359375 0.09765625 C5.93500078 6.99838079 4.27367479 13.55580622 2.2434082 20.22070312 C-0.22692151 28.43820545 -2.38677207 36.73712126 -4.56640625 45.03515625 C-5.35108697 48.01965653 -6.13618763 51.00404581 -6.921875 53.98828125 C-7.11004791 54.70303619 -7.29822083 55.41779114 -7.49209595 56.15420532 C-9.09782909 62.2413348 -10.76222833 68.31024812 -12.46484375 74.37084961 C-13.70083946 78.77084307 -14.89601206 83.17976514 -16.06640625 87.59765625 C-17.64859781 93.5622673 -19.28192195 99.51061152 -20.93847656 105.45483398 C-22.90747126 112.52060791 -24.86452417 119.58963578 -26.81640625 126.66015625 C-27.15293213 127.87880371 -27.48945801 129.09745117 -27.83618164 130.35302734 C-29.70581875 137.13291504 -31.5638026 143.91579666 -33.40625 150.703125 C-34.18869216 153.58466528 -34.97120461 156.46618644 -35.75390625 159.34765625 C-35.94705414 160.05879578 -36.14020203 160.7699353 -36.33920288 161.50262451 C-38.36428041 168.95176167 -40.4000598 176.3938091 -42.62890625 183.78515625 C-44.8769942 191.28391537 -46.87949799 198.84181348 -48.87890625 206.41015625 C-52.44545724 219.90721176 -56.24049361 233.33061795 -60.10498047 246.74560547 C-65.46991725 265.4506796 -70.6405228 284.21473665 -75.64453125 303.01953125 C-79.12553462 316.07998417 -82.73547058 329.09950991 -86.44140625 342.09765625 C-86.66445435 342.88216156 -86.88750244 343.66666687 -87.11730957 344.47494507 C-87.7516846 346.70401473 -88.38896221 348.93223113 -89.02734375 351.16015625 C-89.21869904 351.83287064 -89.41005432 352.50558502 -89.60720825 353.19868469 C-90.95108732 357.8670184 -90.95108732 357.8670184 -92.06640625 360.09765625 C-98.00640625 360.09765625 -103.94640625 360.09765625 -110.06640625 360.09765625 C-109.3284829 354.93219281 -108.38779516 350.36913559 -106.84375 345.453125 C-106.6227916 344.73483521 -106.40183319 344.01654541 -106.17417908 343.27648926 C-105.45559537 340.94451839 -104.72972919 338.61488291 -104.00390625 336.28515625 C-103.50028822 334.65421493 -102.99720096 333.02310964 -102.49462891 331.3918457 C-101.02467187 326.62521042 -99.54643076 321.86117357 -98.06640625 317.09765625 C-96.68920126 312.66083544 -95.31352444 308.22355294 -93.94140625 303.78515625 C-93.6254248 302.76429932 -93.30944336 301.74344238 -92.98388672 300.69165039 C-90.2311428 291.7455825 -87.64676902 282.75266145 -85.06451416 273.75637817 C-81.96984661 262.99570238 -78.63144915 252.3331802 -75.16479492 241.68554688 C-72.95827486 234.90284737 -70.84486447 228.10841112 -68.87573242 221.25341797 C-67.23679502 215.58195181 -65.43928337 209.96645461 -63.62890625 204.34765625 C-61.31504392 197.15125782 -59.11681598 189.9360249 -57.06640625 182.66015625 C-55.11608287 175.74142558 -53.10800418 168.84625377 -51.00390625 161.97265625 C-50.72893311 161.07434082 -50.45395996 160.17602539 -50.1706543 159.25048828 C-49.87070557 158.27063965 -49.57075684 157.29079102 -49.26171875 156.28125 C-46.57423943 147.50067378 -43.91296925 138.71216171 -41.25320435 129.92315674 C-40.677392 128.02112088 -40.10112981 126.11922114 -39.52438354 124.21746826 C-36.59208407 114.54850535 -33.69214399 104.87571207 -30.94067383 95.15356445 C-29.60670784 90.49082996 -28.18194608 85.857264 -26.75390625 81.22265625 C-24.04188662 72.36733527 -21.41694596 63.48999872 -18.83935547 54.59472656 C-16.04366439 44.96909534 -13.16010309 35.37038824 -10.26220703 25.77514648 C-8.05641791 18.46209519 -8.05641791 18.46209519 -5.94287109 11.12207031 C-5.76096725 10.47549469 -5.57906342 9.82891907 -5.39164734 9.16275024 C-4.88695788 7.3602321 -4.38706516 5.55637293 -3.88745117 3.75244141 C-2.76738173 0.13078364 -2.76738173 0.13078364 0 0 Z " fill="#D86E31" transform="translate(126.06640625,172.90234375)"/>
<path d="M0 0 C83.82 0 167.64 0 254 0 C254 5.61 254 11.22 254 17 C170.18 17 86.36 17 0 17 C0 11.39 0 5.78 0 0 Z " fill="#D76D2E" transform="translate(334,23)"/>
<path d="M0 0 C4.14066212 1.1718855 8.34550527 1.92099736 12.3125 -0.0625 C13.76098582 -0.14592159 15.21320869 -0.16982861 16.6640625 -0.16015625 C17.94023437 -0.15532227 17.94023437 -0.15532227 19.2421875 -0.15039062 C20.13164062 -0.14201172 21.02109375 -0.13363281 21.9375 -0.125 C22.8346875 -0.12048828 23.731875 -0.11597656 24.65625 -0.11132812 C26.87506648 -0.09952591 29.09375018 -0.08306155 31.3125 -0.0625 C31.3125 0.5975 31.3125 1.2575 31.3125 1.9375 C31.89 2.205625 32.4675 2.47375 33.0625 2.75 C35.3125 3.9375 35.3125 3.9375 37.08422852 5.45629883 C39.86550682 7.30510079 41.90175884 7.50153741 45.21484375 7.82421875 C46.92124023 8.0262793 46.92124023 8.0262793 48.66210938 8.23242188 C51.04813932 8.49349538 53.436301 8.73579054 55.82617188 8.95898438 C64.42800858 10.02508638 64.42800858 10.02508638 67.06030273 12.74047852 C68.3046875 14.859375 68.3046875 14.859375 69.33666992 17.0144043 C70.77177589 19.84260788 72.78403704 20.9634951 75.5 22.5 C80.27788827 25.31623495 84.80276128 28.33375045 89.31640625 31.5546875 C91.25686105 32.96873198 91.25686105 32.96873198 93.3125 33.9375 C93.3125 34.5975 93.3125 35.2575 93.3125 35.9375 C90.71189496 37.27820318 88.10745084 38.61023354 85.5 39.9375 C84.76201172 40.3190625 84.02402344 40.700625 83.26367188 41.09375 C82.55146484 41.4546875 81.83925781 41.815625 81.10546875 42.1875 C80.4508667 42.52265625 79.79626465 42.8578125 79.12182617 43.203125 C77.3125 43.9375 77.3125 43.9375 74.3125 43.9375 C73.10582118 42.49618918 71.90347877 41.0508737 70.73046875 39.58203125 C57.05380034 23.72011004 28.16439152 21.38121001 8.6875 19.25 C-6.51777465 18.13401654 -21.56247363 19.32154016 -36.6875 20.9375 C-37.85410156 21.05867188 -39.02070313 21.17984375 -40.22265625 21.3046875 C-55.3569719 23.34480158 -74.97555463 29.74256535 -84.6875 41.9375 C-85.0175 42.5975 -85.3475 43.2575 -85.6875 43.9375 C-90.42768901 42.10258812 -95.05163251 40.01808541 -99.6875 37.9375 C-98.39639977 35.01744153 -97.81315442 34.02126961 -95.0625 32.1875 C-92.5112956 30.25168144 -92.5112956 30.25168144 -92.45556641 27.96777344 C-92.48312012 27.25137695 -92.51067383 26.53498047 -92.5390625 25.796875 C-92.58804688 24.52328125 -92.63703125 23.2496875 -92.6875 21.9375 C-90.00092788 20.97649895 -87.31330289 20.01863751 -84.625 19.0625 C-83.87283203 18.79308594 -83.12066406 18.52367187 -82.34570312 18.24609375 C-78.83319715 16.99923016 -75.34179113 15.81450283 -71.7421875 14.84375 C-68.70204641 13.94181556 -67.69537266 13.26240518 -65.6875 10.9375 C-65.0275 10.9375 -64.3675 10.9375 -63.6875 10.9375 C-63.44 10.36 -63.1925 9.7825 -62.9375 9.1875 C-61.43958106 6.49124591 -60.09922401 4.88277129 -57.6875 2.9375 C-54.59399414 2.45507812 -54.59399414 2.45507812 -50.97265625 2.46875 C-50.3210704 2.46170044 -49.66948456 2.45465088 -48.99815369 2.4473877 C-46.22959303 2.41816479 -43.46175048 2.43428973 -40.69311523 2.44677734 C-32.11863061 2.45704496 -24.65220841 1.78961985 -16.49145508 -1.21728516 C-10.78596042 -2.93713039 -5.58562383 -1.60941704 0 0 Z " fill="#D96E2F" transform="translate(247.6875,383.0625)"/>
<path d="M0 0 C59.73 0 119.46 0 181 0 C181 5.28 181 10.56 181 16 C121.27 16 61.54 16 0 16 C0 10.72 0 5.44 0 0 Z " fill="#D76C2F" transform="translate(582,142)"/>
<path d="M0 0 C2.29924624 0.08584715 4.60076685 0.11773169 6.90161133 0.11352539 C7.91220108 0.11374443 7.91220108 0.11374443 8.94320679 0.1139679 C11.15618174 0.11327472 13.36907111 0.10551036 15.58203125 0.09765625 C17.12188165 0.09578995 18.66173265 0.09436705 20.20158386 0.09336853 C24.24410659 0.08956002 28.28659309 0.07974402 32.32910156 0.06866455 C36.45832835 0.05841455 40.58756102 0.05386323 44.71679688 0.04882812 C52.8112145 0.0381202 60.90560273 0.02106386 69 0 C71.43492123 4.56816024 70.98165399 6.92812104 70 12 C68 14 68 14 64.92724609 14.13525391 C63.63898926 14.08288574 62.35073242 14.03051758 61.0234375 13.9765625 C60.33819 13.95153656 59.6529425 13.92651062 58.94692993 13.90072632 C56.7557869 13.81847691 54.56553889 13.72190952 52.375 13.625 C50.8906617 13.56676528 49.40628654 13.50946189 47.921875 13.453125 C44.28054332 13.31464035 40.6407733 13.15682027 37 13 C37 19.93 37 26.86 37 34 C43.1630183 33.92093225 43.1630183 33.92093225 49.32568359 33.81982422 C50.47544678 33.81233154 50.47544678 33.81233154 51.6484375 33.8046875 C52.82672119 33.78897705 52.82672119 33.78897705 54.02880859 33.77294922 C56 34 56 34 58 36 C58.74573297 42.92466334 59.11883129 50.18517935 55 56 C44.3570049 63.00147649 32.7905779 64.73745397 20.34375 62.27734375 C14.16884683 60.52825994 9.44204075 58.68882079 5 54 C3.49070617 50.98141234 3.77489927 47.87099046 3.75 44.5625 C3.729375 43.88123047 3.70875 43.19996094 3.6875 42.49804688 C3.64815294 37.47637835 3.64815294 37.47637835 5.25610352 35.29931641 C7.42417355 33.68396309 8.55023734 33.65000505 11.23046875 33.70703125 C12.31557739 33.71827026 12.31557739 33.71827026 13.42260742 33.72973633 C14.33502197 33.75704834 15.24743652 33.78436035 16.1875 33.8125 C20.5496875 33.9053125 20.5496875 33.9053125 25 34 C25 26.74 25 19.48 25 12 C21.20805517 12.14033182 17.41654322 12.28700628 13.625 12.4375 C12.54476562 12.47681641 11.46453125 12.51613281 10.3515625 12.55664062 C9.3203125 12.59853516 8.2890625 12.64042969 7.2265625 12.68359375 C6.27346191 12.72025146 5.32036133 12.75690918 4.33837891 12.79467773 C1.97867651 12.85763465 1.97867651 12.85763465 0 14 C-3.5 14.25 -3.5 14.25 -7 14 C-9.45449095 10.31826358 -9.69560229 7.27666592 -9 3 C-6.14398237 -1.33691567 -4.72208374 -1.01147433 0 0 Z " fill="#D86E2F" transform="translate(856,243)"/>
<path d="M0 0 C1.60383327 0.0214708 3.20767468 0.04234163 4.81152344 0.06262207 C10.6140326 0.14003148 16.41638528 0.22883685 22.21875 0.31640625 C35.25375 0.50203125 48.28875 0.68765625 61.71875 0.87890625 C61.71875 35.85890625 61.71875 70.83890625 61.71875 106.87890625 C47.16907949 107.51150062 32.84259657 107.99105594 18.31640625 107.7578125 C16.69169875 107.73634958 15.06698334 107.71547828 13.44226074 107.69519043 C7.55515954 107.61768646 1.66821074 107.52893145 -4.21875 107.44140625 C-17.439375 107.25578125 -30.66 107.07015625 -44.28125 106.87890625 C-44.28125 71.89890625 -44.28125 36.91890625 -44.28125 0.87890625 C-29.43838002 0.26045333 -14.81737435 -0.24180145 0 0 Z M-38.28125 7.87890625 C-38.28125 38.56890625 -38.28125 69.25890625 -38.28125 100.87890625 C-7.59125 100.87890625 23.09875 100.87890625 54.71875 100.87890625 C54.71875 70.18890625 54.71875 39.49890625 54.71875 7.87890625 C24.02875 7.87890625 -6.66125 7.87890625 -38.28125 7.87890625 Z " fill="#D86D2D" transform="translate(444.28125,140.12109375)"/>
<path d="M0 0 C1.0828125 0.8971875 1.0828125 0.8971875 2.1875 1.8125 C2.1875 2.4725 2.1875 3.1325 2.1875 3.8125 C3.1775 4.1425 4.1675 4.4725 5.1875 4.8125 C14.5260834 15.50942281 16.21898814 25.9609506 15.39892578 39.70507812 C14.28237972 50.83443798 7.5931776 59.34049722 -0.75 66.27734375 C-9.82461987 73.03174831 -20.67957998 74.81877541 -31.8125 73.8125 C-43.49646656 71.696226 -52.91240213 65.39596926 -59.8125 55.8125 C-66.20001368 44.99186115 -67.94412845 33.33016888 -64.87109375 21.05078125 C-60.16042784 8.33641338 -52.98571092 0.62914164 -40.83203125 -5.4609375 C-27.15151476 -10.38274807 -12.03605932 -7.43486182 0 0 Z M-50.625 12.0625 C-57.20680977 20.33677514 -57.92338025 29.64713674 -57.07861328 39.86669922 C-55.93268101 48.2456719 -50.24117652 54.71935839 -43.8125 59.8125 C-36.71201699 64.70016125 -29.39422007 66.32947109 -20.8125 65.8125 C-10.90214967 63.71657734 -3.59063019 58.82847987 2.0625 50.5 C4.93169975 45.67007149 6.63496488 41.39812774 7.1875 35.8125 C7.30931641 34.73742187 7.30931641 34.73742187 7.43359375 33.640625 C7.88965686 25.84609186 5.35172869 18.12209776 0.5 12 C-6.29448728 4.93373323 -13.0936912 1.77219429 -22.8125 0.8125 C-24.3284375 0.6578125 -24.3284375 0.6578125 -25.875 0.5 C-35.8228285 1.55827963 -42.95793648 5.92884918 -50.625 12.0625 Z " fill="#D86B2D" transform="translate(756.8125,323.1875)"/>
<path d="M0 0 C6.13645971 3.62229854 11.2346272 9.30842044 13.38671875 16.125 C14.22505227 23.92591401 14.48914611 31.51623153 10.01171875 38.2578125 C5.31424716 43.65538803 -0.44820503 47.66636165 -7.6640625 48.4609375 C-17.05219297 48.5733702 -22.52738481 47.18025056 -29.42578125 40.8125 C-35.55991627 34.14617975 -36.18893885 28.40433082 -35.953125 19.5 C-35.1661167 11.68419346 -31.54734196 7.55968411 -25.7109375 2.5703125 C-18.74134901 -2.23182482 -7.9697049 -2.66848116 0 0 Z " fill="#D86D2F" transform="translate(742.61328125,332.875)"/>
<path d="M0 0 C2 3 2 3 2 5 C4.08519216 4.7438709 6.1681505 4.46951265 8.25 4.1875 C9.41015625 4.03667969 10.5703125 3.88585937 11.765625 3.73046875 C14.98394666 3.00362557 16.58331655 2.18338975 19 0 C17.84826645 2.46800047 16.95216435 4.04783565 15 6 C11.9609375 6.4140625 11.9609375 6.4140625 8.375 6.625 C7.18648438 6.69976562 5.99796875 6.77453125 4.7734375 6.8515625 C3.40058594 6.92503906 3.40058594 6.92503906 2 7 C1.63355422 8.55966592 1.28239138 10.12292651 0.9375 11.6875 C0.74027344 12.55761719 0.54304688 13.42773438 0.33984375 14.32421875 C-0.02552923 17.20100599 0.18899648 19.22551428 1 22 C2.65373496 23.99033641 2.65373496 23.99033641 5 25 C8.30434768 24.82138661 10.58530692 23.73762104 13.625 22.375 C17 21 17 21 20 22 C18.54462432 22.83848804 17.08559627 23.67063934 15.625 24.5 C14.81289063 24.9640625 14.00078125 25.428125 13.1640625 25.90625 C11 27 11 27 9 27 C9.99 29.97 10.98 32.94 12 36 C14.58366245 35.85879984 17.16682885 35.71221667 19.75 35.5625 C20.47960937 35.52318359 21.20921875 35.48386719 21.9609375 35.44335938 C25.4272973 35.23852902 28.65333026 34.9147998 32 34 C31.2265625 34.5878125 31.2265625 34.5878125 30.4375 35.1875 C29.963125 35.785625 29.48875 36.38375 29 37 C29.23043864 39.65466049 29.23043864 39.65466049 30 42 C29.525625 41.505 29.05125 41.01 28.5625 40.5 C24.80602311 38.3010867 21.26001576 38.60999856 17 39 C15.99066406 39.04640625 15.99066406 39.04640625 14.9609375 39.09375 C11.70718032 40.59747842 10.62247659 43.66769402 9.125 46.75 C8.79242188 47.37132812 8.45984375 47.99265625 8.1171875 48.6328125 C6.57577833 51.72869363 5.85966941 53.44626306 6.72265625 56.8515625 C9.10517143 60.85885104 11.96694987 62.71097155 16 65 C14 66 14 66 10 66 C9.67 68.31 9.34 70.62 9 73 C8.67 73 8.34 73 8 73 C7.94392578 71.86111328 7.94392578 71.86111328 7.88671875 70.69921875 C7.82097656 69.70535156 7.75523437 68.71148437 7.6875 67.6875 C7.62949219 66.70136719 7.57148438 65.71523437 7.51171875 64.69921875 C6.94340105 61.70145133 6.23500395 60.9473895 4 59 C4 58.34 4 57.68 4 57 C-0.95 57.33 -5.9 57.66 -11 58 C-12.82565566 61.90691586 -12.82565566 61.90691586 -14 66 C-12.73361924 69.28441679 -12.73361924 69.28441679 -11 72 C-11.495 73.485 -11.495 73.485 -12 75 C-13.98 71.535 -13.98 71.535 -16 68 C-18.475 68.495 -18.475 68.495 -21 69 C-20.38125 68.484375 -19.7625 67.96875 -19.125 67.4375 C-16.52523258 64.45541385 -15.88050877 61.81553799 -15 58 C-20.16024332 55.7178666 -20.16024332 55.7178666 -25.6875 55 C-28.97243374 56.42051189 -30.73343142 58.24336254 -33 61 C-34.33563611 64.16701423 -34.33563611 64.16701423 -35 67 C-35.33 66.01 -35.66 65.02 -36 64 C-35.67 63.34 -35.34 62.68 -35 62 C-38.63 62 -42.26 62 -46 62 C-46 61.67 -46 61.34 -46 61 C-45.33613281 60.98582031 -44.67226563 60.97164062 -43.98828125 60.95703125 C-38.09539252 60.6665258 -38.09539252 60.6665258 -33.125 57.6875 C-32.42375 56.800625 -31.7225 55.91375 -31 55 C-29.66666667 53.66666667 -28.33333333 52.33333333 -27 51 C-27.309375 50.236875 -27.61875 49.47375 -27.9375 48.6875 C-29.61120753 44.45400449 -30.11136766 41.35719204 -30.0625 36.8125 C-30.05347656 35.72582031 -30.04445313 34.63914063 -30.03515625 33.51953125 C-30.02355469 32.68808594 -30.01195312 31.85664063 -30 31 C-32.97 30.67 -35.94 30.34 -39 30 C-39 29.67 -39 29.34 -39 29 C-31.25 28.875 -31.25 28.875 -29 30 C-28.01 26.535 -28.01 26.535 -27 23 C-27.86625 22.32904297 -27.86625 22.32904297 -28.75 21.64453125 C-29.4925 21.03996094 -30.235 20.43539062 -31 19.8125 C-31.7425 19.22082031 -32.485 18.62914062 -33.25 18.01953125 C-35 16 -35 16 -35.25 13.26171875 C-35.1675 12.51535156 -35.085 11.76898438 -35 11 C-34.74734375 11.60199219 -34.4946875 12.20398438 -34.234375 12.82421875 C-32.14903594 16.49995881 -28.81947671 18.34890896 -25 20 C-21.12605779 19.9787674 -21.12605779 19.9787674 -18 18 C-17.08734375 18.01160156 -16.1746875 18.02320313 -15.234375 18.03515625 C-11.60480106 18.06363945 -8.51961511 17.90898261 -5 17 C-1.24710174 13.11333507 0.22485258 8.22149263 0.3125 2.875 C0.1578125 1.451875 0.1578125 1.451875 0 0 Z " fill="#D76E31" transform="translate(457,160)"/>
<path d="M0 0 C0.9796875 0.00515625 1.959375 0.0103125 2.96875 0.015625 C3.9484375 0.01046875 4.928125 0.0053125 5.9375 0 C8.46875 0.265625 8.46875 0.265625 10.46875 2.265625 C10.66235567 5.24317105 10.73090291 8.12739146 10.71166992 11.10571289 C10.71356827 12.02123428 10.71546661 12.93675568 10.71742249 13.88002014 C10.72113722 16.91619337 10.7104169 19.95212916 10.69921875 22.98828125 C10.69802733 25.09053011 10.69757371 27.19277951 10.6978302 29.29502869 C10.69626417 33.70428797 10.68796484 38.11346619 10.67456055 42.52270508 C10.65756013 48.18812015 10.65374643 53.85344612 10.65450573 59.51888371 C10.65423445 63.86043658 10.64876012 68.2019698 10.64150429 72.54351616 C10.63831161 74.63321216 10.63634882 76.72291041 10.63561058 78.81260872 C10.63345393 81.72675538 10.62472471 84.64080554 10.61401367 87.55493164 C10.61446686 88.4271637 10.61492004 89.29939575 10.61538696 90.19805908 C10.5832241 96.1511509 10.5832241 96.1511509 9.46875 97.265625 C7.30394203 97.3645544 5.13581215 97.395336 2.96875 97.390625 C1.7828125 97.39320313 0.596875 97.39578125 -0.625 97.3984375 C-3.53125 97.265625 -3.53125 97.265625 -4.53125 96.265625 C-4.63716102 93.35441951 -4.6780266 90.46680995 -4.67651367 87.55493164 C-4.67987228 86.64116257 -4.6832309 85.72739349 -4.68669128 84.78593445 C-4.69623185 81.74920309 -4.69814594 78.71252668 -4.69921875 75.67578125 C-4.70242913 73.57449826 -4.70579303 71.47321549 -4.70930481 69.37193298 C-4.71530383 64.96092205 -4.71714391 60.54993074 -4.71655273 56.13891602 C-4.71645106 50.47466233 -4.73010544 44.81053384 -4.74732494 39.14630985 C-4.75841976 34.80471718 -4.76047272 30.46315501 -4.75994301 26.12154961 C-4.76112685 24.03267421 -4.76557109 21.94379812 -4.77327538 19.8549366 C-4.78302477 16.93843839 -4.78021733 14.02221512 -4.77416992 11.10571289 C-4.77978943 10.23550507 -4.78540894 9.36529724 -4.79119873 8.46871948 C-4.7489996 0.49835181 -4.7489996 0.49835181 0 0 Z " fill="#D86F31" transform="translate(970.53125,273.734375)"/>
<path d="M0 0 C7.59 0 15.18 0 23 0 C23 20.46 23 40.92 23 62 C15.41 62 7.82 62 0 62 C0 41.54 0 21.08 0 0 Z " fill="#D86D2E" transform="translate(988,292)"/>
<path d="M0 0 C4.18846301 2.09423151 5.47001647 8.71912075 7.22290039 12.97119141 C8.0499857 14.96976044 8.89621236 16.95942035 9.74414062 18.94921875 C13.58777006 28.11663484 16.72077067 36.21397766 13.03125 45.984375 C11.53149006 48.91572397 9.49878438 50.89576052 7 53 C6.67 53.33 6.34 53.66 6 54 C1.75234125 54.64284491 -2.31864855 54.93849981 -6.1484375 52.80078125 C-10.22829842 49.38368255 -12.69425817 46.43949796 -13.37109375 41.0390625 C-13.67090734 25.62511666 -6.96141695 13.30097034 0 0 Z " fill="#D86D2E" transform="translate(712,415)"/>
<path d="M0 0 C3 1 3 1 4.31640625 3.546875 C4.72761719 4.60390625 5.13882813 5.6609375 5.5625 6.75 C5.97628906 7.79671875 6.39007812 8.8434375 6.81640625 9.921875 C7.20699219 10.93765625 7.59757813 11.9534375 8 13 C8.37253906 13.84046875 8.74507812 14.6809375 9.12890625 15.546875 C11.06552995 21.00068523 10.92984383 26.93817237 8.5625 32.1875 C5.32062559 34.48053312 3.11795946 34.79017059 -0.8046875 34.53125 C-3.71223173 33.82764499 -5.51086887 32.50821949 -7.18359375 30.01953125 C-9.86144177 23.39538088 -8.27393177 17.00853374 -5.6875 10.625 C-4.02345811 6.91713488 -2.14114969 3.45346725 0 0 Z " fill="#D96D2E" transform="translate(749,444)"/>
<path d="M0 0 C0.66 0 1.32 0 2 0 C2.49371094 1.20398438 2.98742187 2.40796875 3.49609375 3.6484375 C4.14318938 5.22397468 4.79032697 6.79949462 5.4375 8.375 C5.76298828 9.1690625 6.08847656 9.963125 6.42382812 10.78125 C6.73642578 11.54179687 7.04902344 12.30234375 7.37109375 13.0859375 C7.65911865 13.7876709 7.94714355 14.4894043 8.24389648 15.21240234 C8.78601836 16.49409959 9.37764255 17.75528511 10 19 C10.40251462 24.23269006 9.80083881 27.53940485 7 32 C3.2794164 34.48038907 1.40203429 34.46337203 -3 34 C-5.90396157 31.80240746 -7.81770071 29.44837292 -9 26 C-10.1456005 16.45332917 -4.68470389 7.94863693 0 0 Z " fill="#D96D2E" transform="translate(729,472)"/>
<path d="M0 0 C5.42094726 6.80400419 8.93832748 14.24227684 8 23 C7 26 7 26 4 28 C-2.27368833 28.56015074 -2.27368833 28.56015074 -4.65625 26.72265625 C-7.20975541 23.44912169 -7.3049531 20.05069778 -7 16 C-5.33720225 10.32151281 -3.28872075 4.93308113 0 0 Z " fill="#DA6E31" transform="translate(681,459)"/>
<path d="M0 0 C2.16965398 3.25448097 3.36143262 6.5253585 4.625 10.1875 C4.85445312 10.84169922 5.08390625 11.49589844 5.3203125 12.16992188 C5.88395144 13.77864135 6.44247984 15.38914977 7 17 C8.98 15.68 10.96 14.36 13 13 C9.9060101 19.75917794 4.94175486 25.81555627 0.125 31.4375 C-1.66721434 33.59869965 -2.91361387 35.43217824 -4 38 C-4.33 37.34 -4.66 36.68 -5 36 C-5.66 36.99 -6.32 37.98 -7 39 C-7.8359375 36.35546875 -7.8359375 36.35546875 -8 33 C-6.24416669 30.77051407 -4.72662581 29.14501518 -2.625 27.3125 C1.50066713 23.75246922 1.50066713 23.75246922 4 19 C3.03406127 15.78386309 1.91935586 12.67755648 0.73828125 9.53710938 C-1.46232266 3.4033819 -1.46232266 3.4033819 0 0 Z " fill="#D56F33" transform="translate(646,194)"/>
<path d="M0 0 C0.33 0 0.66 0 1 0 C1 3.96 1 7.92 1 12 C-1.31 11.67 -3.62 11.34 -6 11 C-4.55007731 6.89188572 -2.54592427 3.53144334 0 0 Z " fill="#D66A29" transform="translate(626,283)"/>
<path d="M0 0 C0.125 2.875 0.125 2.875 0 6 C-0.66 6.66 -1.32 7.32 -2 8 C-2.69748583 9.31747324 -3.36959957 10.64914193 -4 12 C-4.33 11.34 -4.66 10.68 -5 10 C-5.66 10.99 -6.32 11.98 -7 13 C-7.9375 10.4375 -7.9375 10.4375 -8 7 C-2.78842315 0 -2.78842315 0 0 0 Z " fill="#D57941" transform="translate(646,220)"/>
<path d="M0 0 C1.79378179 2.69067269 2.97313958 5.08578257 4.1875 8.0625 C4.55230469 8.94035156 4.91710937 9.81820312 5.29296875 10.72265625 C6 13 6 13 5 15 C4.01 15.495 4.01 15.495 3 16 C2.29954544 14.08802961 1.615081 12.17019565 0.9375 10.25 C0.55464844 9.18265625 0.17179688 8.1153125 -0.22265625 7.015625 C-0.98010011 4.07719958 -1.07151741 2.77651052 0 0 Z " fill="#D8773F" transform="translate(646,194)"/>
<path d="M0 0 C0.721875 0.763125 1.44375 1.52625 2.1875 2.3125 C4.69790967 4.71133591 6.96808302 6.35410221 10 8 C8 9 8 9 4 9 C3.67 11.31 3.34 13.62 3 16 C2.67 16 2.34 16 2 16 C1.92652344 14.86111328 1.92652344 14.86111328 1.8515625 13.69921875 C1.77679688 12.70535156 1.70203125 11.71148437 1.625 10.6875 C1.55539062 9.70136719 1.48578125 8.71523437 1.4140625 7.69921875 C1.16134528 4.78471567 1.16134528 4.78471567 -1 2 C-0.67 1.34 -0.34 0.68 0 0 Z " fill="#D88251" transform="translate(463,217)"/>
<path d="M0 0 C0.66 0.33 1.32 0.66 2 1 C1.01 1.66 0.02 2.32 -1 3 C-0.67 4.65 -0.34 6.3 0 8 C-0.5775 7.360625 -1.155 6.72125 -1.75 6.0625 C-6.56040091 3.00974558 -11.40562954 3.17844882 -17 3 C-17 2.67 -17 2.34 -17 2 C-15.41058594 1.90912109 -15.41058594 1.90912109 -13.7890625 1.81640625 C-12.40102779 1.73199873 -11.01300768 1.64735083 -9.625 1.5625 C-8.92632812 1.52318359 -8.22765625 1.48386719 -7.5078125 1.44335938 C-3.62639508 1.25719866 -3.62639508 1.25719866 0 0 Z " fill="#DB834F" transform="translate(487,194)"/>
<path d="M0 0 C0.66666667 1.33333333 1.33333333 2.66666667 2 4 C2.556875 5.010625 3.11375 6.02125 3.6875 7.0625 C5 10 5 10 4 13 C2.02 9.535 2.02 9.535 0 6 C-1.65 6.33 -3.3 6.66 -5 7 C-4.0409375 6.1028125 -4.0409375 6.1028125 -3.0625 5.1875 C-0.79689611 3.09189663 -0.79689611 3.09189663 0 0 Z " fill="#DA8C5E" transform="translate(441,222)"/>
<path d="M0 0 C0.24492187 0.60328125 0.48984375 1.2065625 0.7421875 1.828125 C2.22565933 4.38964779 3.58473931 5.27500992 6.125 6.75 C6.84945313 7.17796875 7.57390625 7.6059375 8.3203125 8.046875 C8.87460937 8.36140625 9.42890625 8.6759375 10 9 C9.01 10.485 9.01 10.485 8 12 C6.65213008 10.95600254 5.32207271 9.88897934 4 8.8125 C3.2575 8.22082031 2.515 7.62914062 1.75 7.01953125 C0 5 0 5 -0.25 2.26171875 C-0.1675 1.51535156 -0.085 0.76898438 0 0 Z " fill="#D47844" transform="translate(422,171)"/>
<path d="M0 0 C-3.96 1.98 -7.92 3.96 -12 6 C-12 5.01 -12 4.02 -12 3 C-10.5682384 2.30062798 -9.12932968 1.61587282 -7.6875 0.9375 C-6.48673828 0.36322266 -6.48673828 0.36322266 -5.26171875 -0.22265625 C-3 -1 -3 -1 0 0 Z " fill="#D57D46" transform="translate(477,182)"/>
<path d="M0 0 C2.12508244 3.18762365 2.5020163 5.26512223 3 9 C0.23776722 6.23776722 0.42143709 3.79293383 0 0 Z " fill="#DA9265" transform="translate(454,151)"/>
<path d="M0 0 C0 0.99 0 1.98 0 3 C-0.99 3.495 -0.99 3.495 -2 4 C-1.34 2.68 -0.68 1.36 0 0 Z " fill="#D7834E" transform="translate(479,155)"/>
<path d="M0 0 C2 1 2 1 2 1 Z " fill="#EAD2C0" transform="translate(926,355)"/>
<path d="" fill="#E1925E" transform="translate(0,0)"/>
<path d="" fill="#DA8750" transform="translate(0,0)"/>
<path d="M0 0 C2 1 2 1 2 1 Z " fill="#DC9D78" transform="translate(489,193)"/>
<path d="" fill="#E0C6B7" transform="translate(0,0)"/>
<path d="" fill="#EAD2C2" transform="translate(0,0)"/>
<path d="" fill="#DAA788" transform="translate(0,0)"/>
<path d="" fill="#D88756" transform="translate(0,0)"/>
<path d="" fill="#DB966B" transform="translate(0,0)"/>
<path d="" fill="#DA8651" transform="translate(0,0)"/>
<path d="" fill="#EAE9E6" transform="translate(0,0)"/>
<path d="" fill="#D08253" transform="translate(0,0)"/>
<path d="" fill="#D4946B" transform="translate(0,0)"/>
<path d="" fill="#D8A481" transform="translate(0,0)"/>
<path d="" fill="#E8AF8A" transform="translate(0,0)"/>
<path d="" fill="#E3996C" transform="translate(0,0)"/>
<path d="" fill="#F2F1EF" transform="translate(0,0)"/>
<path d="" fill="#DFB9A2" transform="translate(0,0)"/>
<path d="" fill="#D9732B" transform="translate(0,0)"/>
<path d="" fill="#D78040" transform="translate(0,0)"/>
<path d="" fill="#DC8549" transform="translate(0,0)"/>
<path d="" fill="#D58247" transform="translate(0,0)"/>
<path d="" fill="#E1955D" transform="translate(0,0)"/>
<path d="" fill="#E39B6C" transform="translate(0,0)"/>
<path d="" fill="#EBA270" transform="translate(0,0)"/>
</svg>
